# xmcd
#
# Track frame offsets: 
#        150
#        17938
#        34574
#        50514
#        65027
#        81657
#        97259
#        115939
#        131404
#        150912
#        166799
#        182905
#        197778
#        224123
#        250619
#        268656
#        284266
#        300262
#        317508
#        331773
#
# Disc length: 4618 seconds
#
# Revision: 3
# Processed by: cddbd v1.5.2PL0 Copyright (c) Steve Scherf et al.
# Submitted via: ExactAudioCopy v0.99pb5
#
DISCID=1d120814
DTITLE=Various Artist - Die Grössten Schweizer Hits - Lovesongs and Emotions - 
DTITLE=CD 1
DYEAR=2007
DGENRE=Pop
TTITLE0=Phil Carmen - On my way to L.A.
TTITLE1=Martin Schenkel - Sometimes
TTITLE2=Stress - Avenues
TTITLE3=Natacha - Sorry
TTITLE4=Kandlbauer - Maybe in heaven
TTITLE5=Dada (Ante Portas) - She cries for someone else
TTITLE6=Gotthard - Heaven
TTITLE7=Lovebugs feat. Lene Marlin - Avalon
TTITLE8=Mash - Ewigi Liäbi
TTITLE9=Polo Hofer und die Schmetterband - Giggerig
TTITLE10=Bo Katzman Gang - Working on the galley
TTITLE11=Mia Aegerter - So wie i bi
TTITLE12=Krokus - Tokyo nights
TTITLE13=Touch El Arab - Muhammar
TTITLE14=DJ Bobo - Let the dream come true
TTITLE15=Carmen Fenk - I love you
TTITLE16=Scream - Aquarium
TTITLE17=Olivia Gray - Raining in my heart
TTITLE18=Peter Reber - Jede bruucht sy Insel
TTITLE19=Stephan Eicher - Campari Soda
EXTD=
EXTT0=
EXTT1=
EXTT2=
EXTT3=
EXTT4=
EXTT5=
EXTT6=
EXTT7=
EXTT8=
EXTT9=
EXTT10=
EXTT11=
EXTT12=
EXTT13=
EXTT14=
EXTT15=
EXTT16=
EXTT17=
EXTT18=
EXTT19=
PLAYORDER=
